<?xml version="1.0" encoding="UTF-8" standalone="no"?>
<!DOCTYPE svg PUBLIC "-//W3C//DTD SVG 1.1//EN" "http://www.w3.org/Graphics/SVG/1.1/DTD/svg11.dtd">
<svg width="751.44" height="186.72" viewBox="0.00 0.00 3131.00 778.00" xmlns="http://www.w3.org/2000/svg" xmlns:xlink="http://www.w3.org/1999/xlink">
<g stroke-linecap="round" transform="translate(0.00, -136.00)" id="レイヤー_1">
<path d="M192.04,769.39 C180.89,762.77 153.60,746.41 140.67,735.88 C134.91,731.07 123.56,720.82 117.96,715.37 C112.44,709.76 101.88,698.31 96.84,692.48 C91.85,686.53 82.61,674.21 78.17,667.87 C73.89,661.43 65.79,648.29 61.97,641.63 C58.31,634.93 52.77,624.14 48.42,614.32 C45.47,607.23 39.98,592.76 37.45,585.41 C35.08,578.04 29.87,559.65 29.00,555.87 C28.14,552.09 24.86,533.26 23.80,525.59 C22.88,517.87 21.56,502.45 21.14,494.78 C20.79,483.99 21.14,471.88 21.56,464.21 C22.14,456.51 23.80,441.06 24.86,433.40 C26.09,425.80 28.96,410.78 30.86,403.39 C32.89,396.00 37.45,381.25 39.98,373.90 C42.66,366.61 48.42,352.34 51.52,345.34 C53.36,341.27 62.06,324.97 65.93,318.29 C69.95,311.66 78.41,298.65 82.81,292.33 C89.87,282.65 94.18,277.33 102.24,268.39 C121.62,247.92 155.83,217.75 165.53,209.32 C170.62,204.98 184.24,197.56 194.42,193.59 C205.74,189.20 240.26,179.56 257.02,175.45 C275.51,171.39 309.76,164.17 325.53,161.02 C331.97,159.86 347.44,157.21 352.58,156.95 C362.18,156.50 375.02,158.35 379.89,159.05" fill="none" stroke="rgb(0, 0, 0)" stroke-width="26.94" stroke-opacity="1.00" stroke-linejoin="round"/>
<path d="M382.58,158.55 L633.04,351.93" fill="none" stroke="rgb(0, 0, 0)" stroke-width="26.94" stroke-opacity="1.00" stroke-linejoin="round"/>
<path d="M633.31,355.90 L633.31,756.94" fill="none" stroke="rgb(0, 0, 0)" stroke-width="26.94" stroke-opacity="1.00" stroke-linejoin="round"/>
<path d="M193.37,770.41 L3107.77,770.41" fill="none" stroke="rgb(0, 0, 0)" stroke-width="26.94" stroke-opacity="1.00" stroke-linejoin="round"/>
<path d="M635.82,633.53 L3108.70,634.55 L3108.79,870.64" fill="none" stroke="rgb(0, 0, 0)" stroke-width="26.94" stroke-opacity="1.00" stroke-linejoin="round"/>
<path d="M339.08,291.35 C345.60,291.35 362.36,292.71 370.18,293.87 C377.96,295.03 393.07,298.39 400.46,300.67 C407.85,303.04 422.51,308.83 429.58,312.17 C437.70,316.03 449.00,322.55 456.40,327.66 C462.83,332.11 475.18,341.91 480.92,347.13 C486.59,352.38 497.06,363.79 501.96,369.95 C506.87,376.14 516.42,389.97 519.69,395.62 C522.94,401.27 530.14,416.46 533.05,423.81 C535.94,431.13 540.58,445.90 542.30,453.44 C543.95,461.01 546.26,476.61 546.90,484.40 C547.62,493.37 547.62,506.41 546.90,515.38 C546.26,523.17 543.95,538.77 542.30,546.34 C540.58,553.88 535.94,568.66 533.05,575.97 C530.14,583.32 522.94,598.51 519.69,604.16 C516.42,609.81 506.87,623.64 501.96,629.84 C497.06,635.99 486.59,647.40 480.92,652.66 C475.18,657.87 462.83,667.68 456.40,672.12 C449.00,677.23 437.70,683.75 429.58,687.61 C422.51,690.95 407.85,696.75 400.46,699.11 C393.07,701.39 377.96,704.76 370.18,705.92 C362.36,707.07 345.60,708.43 339.08,708.44 C332.56,708.43 315.80,707.07 307.98,705.92 C300.21,704.76 285.09,701.39 277.70,699.11 C270.32,696.75 255.65,690.95 248.58,687.61 C240.46,683.75 229.16,677.23 221.76,672.12 C215.33,667.68 202.98,657.87 197.24,652.66 C191.57,647.40 181.10,635.99 176.21,629.84 C171.30,623.64 161.74,609.81 158.48,604.16 C155.22,598.51 148.02,583.32 145.11,575.97 C142.23,568.66 137.58,553.88 135.86,546.34 C134.22,538.77 131.90,523.17 131.26,515.38 C130.54,506.41 130.54,493.37 131.26,484.40 C131.90,476.61 134.22,461.01 135.86,453.44 C137.58,445.90 142.23,431.13 145.11,423.81 C148.02,416.46 155.22,401.27 158.48,395.62 C161.74,389.97 171.30,376.14 176.21,369.95 C181.10,363.79 191.57,352.38 197.24,347.13 C202.98,341.91 215.33,332.11 221.76,327.66 C229.16,322.55 240.46,316.03 248.58,312.17 C255.65,308.83 270.32,303.04 277.70,300.67 C285.09,298.39 300.21,295.03 307.98,293.87 C315.80,292.71 332.56,291.35 339.08,291.35 Z" fill="none" stroke="rgb(0, 0, 0)" stroke-width="26.94" stroke-opacity="1.00" stroke-linejoin="round"/>
<path d="M246.40,468.64 Q344.47,468.10 443.62,468.64 Q470.03,468.10 470.57,495.58 Q470.03,501.51 470.57,508.51 Q470.03,534.92 443.62,535.46 Q344.47,534.92 246.40,535.46 Q218.91,534.92 219.45,508.51 Q218.91,501.51 219.45,495.58 Q218.91,468.10 246.40,468.64 Z" fill="none" stroke="rgb(0, 0, 0)" stroke-width="26.94" stroke-opacity="1.00" stroke-linejoin="round"/>
<path d="M83.31,411.76 Q134.75,247.16 287.59,217.76" fill="none" stroke="rgb(0, 0, 0)" stroke-width="16.17" stroke-opacity="1.00" stroke-linejoin="round"/>
<path d="M225.92,738.07 L593.43,738.07" fill="none" stroke="rgb(0, 0, 0)" stroke-width="18.32" stroke-opacity="1.00" stroke-linejoin="round"/>
<path d="M859.64,673.41 L859.64,766.10" fill="none" stroke="rgb(0, 0, 0)" stroke-width="18.32" stroke-opacity="1.00" stroke-linejoin="round"/>
<path d="M1182.96,704.66 L1182.96,766.10" fill="none" stroke="rgb(0, 0, 0)" stroke-width="18.32" stroke-opacity="1.00" stroke-linejoin="round"/>
<path d="M1495.51,673.41 L1495.51,766.10" fill="none" stroke="rgb(0, 0, 0)" stroke-width="18.32" stroke-opacity="1.00" stroke-linejoin="round"/>
<path d="M1818.83,704.66 L1818.83,766.10" fill="none" stroke="rgb(0, 0, 0)" stroke-width="18.32" stroke-opacity="1.00" stroke-linejoin="round"/>
<path d="M2113.06,673.41 L2113.06,766.10" fill="none" stroke="rgb(0, 0, 0)" stroke-width="18.32" stroke-opacity="1.00" stroke-linejoin="round"/>
<path d="M2436.38,704.66 L2436.38,766.10" fill="none" stroke="rgb(0, 0, 0)" stroke-width="18.32" stroke-opacity="1.00" stroke-linejoin="round"/>
<path d="M2719.83,673.41 L2719.83,766.10" fill="none" stroke="rgb(0, 0, 0)" stroke-width="18.32" stroke-opacity="1.00" stroke-linejoin="round"/>
<path d="M2980.54,635.56 Q2944.91,701.95 2984.59,769.16" fill="none" stroke="rgb(0, 0, 0)" stroke-width="26.94" stroke-opacity="1.00" stroke-linejoin="round"/>
<path d="M3057.46,771.59 L3109.29,871.19" fill="none" stroke="rgb(0, 0, 0)" stroke-width="26.94" stroke-opacity="1.00" stroke-linejoin="round"/>
<path d="M3109.29,871.19 L3109.29,871.19" fill="none" stroke="rgb(0, 0, 0)" stroke-width="26.94" stroke-opacity="1.00" stroke-linejoin="round"/>
<path d="M3113.10,700.35" fill="none" stroke="rgb(0, 0, 0)" stroke-width="18.32" stroke-opacity="1.00" stroke-linejoin="round"/>
<path d="M3003.71,698.74 L3106.09,698.74" fill="none" stroke="rgb(0, 0, 0)" stroke-width="10.78" stroke-opacity="1.00" stroke-linejoin="round"/>
<path d="M3050.05,667.48 L3105.02,667.48" fill="none" stroke="rgb(0, 0, 0)" stroke-width="10.78" stroke-opacity="1.00" stroke-linejoin="round"/>
<path d="M3105.38,666.34 L3105.38,666.34" fill="none" stroke="rgb(0, 0, 0)" stroke-width="10.78" stroke-opacity="1.00" stroke-linejoin="round"/>
<path d="M3050.05,732.15 L3101.78,732.15" fill="none" stroke="rgb(0, 0, 0)" stroke-width="10.78" stroke-opacity="1.00" stroke-linejoin="round"/>
<path d="M444.50,204.50 L600.50,204.50 L600.50,319.50" fill="none" stroke="rgb(0, 0, 0)" stroke-width="25.00" stroke-opacity="1.00" stroke-linejoin="miter"/>
</g>
</svg>
